<svg xmlns="http://www.w3.org/2000/svg" viewBox="0 0 1024 1024" role="img" aria-labelledby="bonjemgu-logo-title">
    <title id="bonjemgu-logo-title">Bonjemgu</title>
    <defs>
        <clipPath id="upper-left-mark">
            <path d="M265 70a221 221 0 0 1 0 442V70Z" />
        </clipPath>
        <clipPath id="lower-left-mark">
            <path d="M265 512a221 221 0 0 1 0 442V512Z" />
        </clipPath>
        <clipPath id="top-right-mark">
            <circle cx="742" cy="282" r="212" />
        </clipPath>
    </defs>

    <rect x="70" y="70" width="195" height="884" fill="#7A1E05" />

    <g clip-path="url(#upper-left-mark)">
        <rect x="265" y="70" width="221" height="221" fill="#F7D85A" />
        <rect x="265" y="291" width="221" height="221" fill="#B92500" />
    </g>

    <g clip-path="url(#lower-left-mark)">
        <circle cx="265" cy="733" r="221" fill="#DF4C19" />
    </g>
    <circle cx="335" cy="733" r="106" fill="#F8E7A3" />

    <g clip-path="url(#top-right-mark)">
        <rect x="530" y="70" width="212" height="424" fill="#B92500" />
        <rect x="742" y="70" width="212" height="424" fill="#E28E49" />
    </g>

    <path d="M529 547h425v186c0 122.1-98.9 221-221 221H529V547Z" fill="#F7D85A" />
    <path d="M529 547h204c0 112.7-91.3 204-204 204V547Z" fill="#7A1E05" />
</svg>
